#!OML:ASF F:\VICON\USERDATA\INSTALL\Justin_Nancy\Justin_Nancy.ASF
:FULLY-SPECIFIED
:DEGREES
429
root -14.1485 17.3091 20.1483 -1.90757 -44.1436 5.93414
lowerback 5.96145 -1.65308 -5.53385
upperback -0.119116 -2.52674 1.99908
thorax -3.13993 -1.15775 5.40466
lowerneck -14.3978 -2.70621 -9.90503
upperneck 22.8343 -2.79385 5.29855
head 9.83862 -1.61663 3.1582
rclavicle -9.90942e-014 -1.03368e-014
rhumerus -34.596 -10.3468 -79.106
rradius 31.2154
rwrist 3.23251
rhand -14.3135 10.9205
rfingers 7.12502
rthumb 11.8268 -18.7255
lclavicle -9.90942e-014 -1.03368e-014
lhumerus -24.1115 9.67034 85.4367
lradius 25.6233
lwrist -9.7112
lhand -18.4429 24.346
lfingers 7.12502
lthumb 7.84289 54.1806
rfemur -32.3403 0.351061 16.9687
rtibia 43.8864
rfoot -7.59214 -6.7002
rtoes -2.95488
lfemur -5.20826 1.13841 -30.3851
ltibia 23.5877
lfoot -16.218 -3.55846
ltoes 9.04142
430
root -14.2402 17.295 20.2306 -1.69777 -44.1812 5.84246
lowerback 6.1157 -1.79393 -5.80352
upperback -0.271009 -2.7368 2.24591
thorax -3.33311 -1.24542 5.8453
lowerneck -12.3828 -2.5483 -11.7376
upperneck 20.9802 -2.7347 7.10215
head 8.856 -1.54094 4.08011
rclavicle -2.52457e-014 4.77083e-015
rhumerus -34.2814 -10.8616 -78.6646
rradius 30.4065
rwrist 4.18258
rhand -14.3055 11.2431
rfingers 7.12502
rthumb 11.8345 -18.4025
lclavicle -2.52457e-014 4.77083e-015
lhumerus -24.1264 10.105 85.4886
lradius 25.7739
lwrist -9.92687
lhand -18.499 24.2881
lfingers 7.12502
lthumb 7.78876 54.1247
rfemur -32.4018 1.02196 16.9663
rtibia 41.2202
rfoot -7.28939 -7.48737
rtoes -1.5314
lfemur -4.75091 1.44598 -30.2529
ltibia 23.2517
lfoot -16.3775 -3.75131
ltoes 9.04627
431
root -14.3363 17.2949 20.3436 -1.70666 -44.2311 5.77425
lowerback 6.00262 -1.84025 -5.66618
upperback -0.159309 -2.78148 2.23918
thorax -3.15318 -1.28001 5.75431
lowerneck -15.0196 -2.50555 -9.51724
upperneck 23.062 -2.39616 4.69543
head 9.99291 -1.46323 2.93174
rclavicle 1.03169e-013 -1.43125e-014
rhumerus -33.962 -12.0311 -78.2333
rradius 29.6258
rwrist 5.35795
rhand -14.2349 11.9385
rfingers 7.12502
rthumb 11.9026 -17.7032
lclavicle 1.03169e-013 -1.43125e-014
lhumerus -23.8887 9.81997 85.5283
lradius 25.9813
lwrist -9.78409
lhand -18.1181 24.4782
lfingers 7.12502
lthumb 8.15637 54.3008
rfemur -31.9635 1.53911 16.8283
rtibia 38.3894
rfoot -7.24003 -8.01037
rtoes 2.15616
lfemur -3.98166 1.2093 -30.3033
ltibia 22.9916
lfoot -16.59 -3.22044
ltoes 8.82456
432
root -14.4336 17.3005 20.4546 -1.95596 -43.983 6.2896
lowerback 5.60942 -1.84654 -5.81532
upperback 0.0415128 -2.78337 1.95542
thorax -2.73002 -1.30114 5.51542
lowerneck -13.5978 -2.89571 -10.3133
upperneck 21.7736 -3.07752 5.58503
head 9.35077 -1.73979 3.27827
rclavicle -3.66758e-014 1.11319e-014
rhumerus -33.6309 -13.8267 -77.8446
rradius 28.9606
rwrist 6.60751
rhand -14.0066 12.9161
rfingers 7.12502
rthumb 12.1227 -16.7127
lclavicle -3.66758e-014 1.11319e-014
lhumerus -23.3034 8.95166 85.5473
lradius 26.1387
lwrist -9.45336
lhand -18.064 24.4821
lfingers 7.12502
lthumb 8.20854 54.3027
rfemur -31.5054 1.65888 16.2333
rtibia 35.3374
rfoot -7.27856 -8.24699
rtoes 5.60109
lfemur -3.38269 1.06175 -30.7771
ltibia 22.7235
lfoot -16.7575 -3.13732
ltoes 9.32257
433
root -14.52 17.3011 20.5269 -1.32014 -43.8754 5.92385
lowerback 5.47665 -1.76879 -5.58662
upperback 0.0343608 -2.6589 1.90551
thorax -2.6924 -1.24332 5.3193
lowerneck -14.5522 -2.91588 -9.20284
upperneck 22.1943 -3.13179 4.95321
head 9.65178 -1.73356 2.86426
rclavicle 1.46107e-014 -7.95139e-015
rhumerus -33.4309 -15.9516 -77.2829
rradius 28.2584
rwrist 8.27306
rhand -13.1413 14.5742
rfingers 7.12502
rthumb 12.957 -15.0034
lclavicle 1.46107e-014 -7.95139e-015
lhumerus -22.7958 8.04311 85.6334
lradius 26.291
lwrist -9.2996
lhand -18.5419 24.4938
lfingers 7.12502
lthumb 7.74732 54.3319
rfemur -31.6674 2.04454 16.5268
rtibia 32.2787
rfoot -7.01145 -8.79491
rtoes 4.566
lfemur -3.0405 1.15652 -30.4151
ltibia 21.9439
lfoot -16.5385 -3.38797
ltoes 9.52761
434
root -14.6124 17.2847 20.6039 -0.913047 -43.8047 5.87899
lowerback 5.45609 -1.79373 -5.78757
upperback -0.140621 -2.70441 1.97816
thorax -2.84437 -1.25274 5.5167
lowerneck -14.9258 -2.81179 -8.92416
upperneck 22.4896 -2.99855 4.82954
head 9.80872 -1.66211 2.79322
rclavicle -1.88845e-015 1.03368e-014
rhumerus -33.578 -16.5293 -76.9479
rradius 28.1011
rwrist 9.0281
rhand -12.582 15.5106
rfingers 7.12502
rthumb 13.4961 -14.0321
lclavicle -1.88845e-015 1.03368e-014
lhumerus -22.666 7.6487 85.7333
lradius 26.3748
lwrist -9.15773
lhand -18.8337 24.0657
lfingers 7.12502
lthumb 7.46571 53.914
rfemur -31.8563 2.15998 16.7354
rtibia 29.0446
rfoot -6.22199 -9.1895
rtoes -0.915976
lfemur -2.74113 1.57087 -30.2997
ltibia 21.4078
lfoot -16.5827 -3.63183
ltoes 8.31344
435
root -14.736 17.2665 20.7573 -2.22921 -43.675 7.84118
lowerback 4.70436 -1.91612 -7.0457
upperback -0.00972392 -2.90073 1.59938
thorax -2.21826 -1.36449 5.80409
lowerneck -15.1564 -2.7776 -9.09347
upperneck 22.7507 -2.92071 4.93575
head 9.94375 -1.63081 2.87216
rclavicle -1.25036e-013 2.06736e-014
rhumerus -33.8222 -15.2152 -77.382
rradius 28.8021
rwrist 8.1111
rhand -12.9289 14.5343
rfingers 7.12502
rthumb 13.1617 -15.0303
lclavicle -1.25036e-013 2.06736e-014
lhumerus -22.5555 7.84123 85.7477
lradius 26.5625
lwrist -9.05056
lhand -19.0237 24.1158
lfingers 7.12502
lthumb 7.28223 53.9704
rfemur -31.1536 0.639919 15.6242
rtibia 25.6495
rfoot -5.74384 -7.88509
rtoes -4.11067
lfemur -1.71964 2.32507 -31.9066
ltibia 21.1017
lfoot -17.2521 -3.96471
ltoes 7.44766
436
root -14.8204 17.2651 20.834 -1.60273 -43.2265 7.31614
lowerback 4.81536 -2.18112 -6.8319
upperback -0.103497 -3.24639 1.85754
thorax -2.3224 -1.53174 5.98008
lowerneck -15.3757 -2.76009 -9.27279
upperneck 22.8109 -2.81017 4.86704
head 10.0013 -1.60101 2.89244
rclavicle -2.70347e-014 -6.36111e-015
rhumerus -33.7596 -14.0904 -77.8393
rradius 29.3019
rwrist 7.09577
rhand -13.4731 13.359
rfingers 7.12502
rthumb 12.6371 -16.2387
lclavicle -2.70347e-014 -6.36111e-015
lhumerus -22.3648 8.31823 85.8211
lradius 26.7154
lwrist -9.21167
lhand -18.874 24.2817
lfingers 7.12502
lthumb 7.42681 54.1314
rfemur -30.8152 0.730455 16.0705
rtibia 22.3237
rfoot -5.28645 -8.74453
rtoes -4.49314
lfemur -1.3486 1.92361 -31.4909
ltibia 20.5762
lfoot -16.9983 -3.85398
ltoes 7.51901
437
root -14.9188 17.2663 20.9255 -0.899513 -43.5222 6.40647
lowerback 4.84122 -2.29504 -6.40764
upperback -0.185599 -3.36943 2.22056
thorax -2.40547 -1.59168 6.13194
lowerneck -15.362 -2.6115 -9.40301
upperneck 22.7196 -2.54076 4.76988
head 9.94584 -1.49757 2.91417
rclavicle 1.17879e-013 1.59028e-015
rhumerus -33.741 -12.9738 -78.2663
rradius 29.5416
rwrist 6.0605
rhand -13.9836 12.1677
rfingers 7.12502
rthumb 12.145 -17.4598
lclavicle 1.17879e-013 1.59028e-015
lhumerus -22.5012 8.84753 85.8021
lradius 26.9139
lwrist -9.35724
lhand -18.9159 24.0999
lfingers 7.12502
lthumb 7.38631 53.9509
rfemur -30.5875 1.26036 16.9757
rtibia 19.7069
rfoot -5.28165 -9.36571
rtoes -8.86044
lfemur -0.442738 1.72103 -30.8061
ltibia 19.5086
lfoot -16.6242 -3.24551
ltoes 7.34625
438
root -15.0289 17.2643 21.0501 -1.13301 -43.6674 6.7921
lowerback 4.54895 -2.3192 -6.65884
upperback -0.151163 -3.39747 2.16953
thorax -2.19013 -1.61273 6.20452
lowerneck -15.282 -2.59309 -9.53439
upperneck 22.634 -2.51395 4.87954
head 9.90115 -1.48338 2.97776
rclavicle -8.73659e-014 1.35174e-014
rhumerus -33.8871 -12.4024 -78.3819
rradius 29.6641
rwrist 5.49643
rhand -14.0412 11.971
rfingers 7.12502
rthumb 12.0894 -17.6598
lclavicle -8.73659e-014 1.35174e-014
lhumerus -22.4401 9.02808 85.7945
lradius 27.0066
lwrist -9.6784
lhand -18.7969 23.9993
lfingers 7.12502
lthumb 7.50122 53.8463
rfemur -30.1429 0.267692 17.3258
rtibia 16.8465
rfoot -4.735 -8.40864
rtoes -18.8997
lfemur 0.431813 1.77369 -31.196
ltibia 18.9861
lfoot -16.793 -2.8813
ltoes 7.04268
439
root -15.1369 17.2622 21.1558 -1.74752 -43.4579 8.06012
lowerback 4.13554 -2.27492 -7.51815
upperback -0.144179 -3.35991 1.81662
thorax -1.92981 -1.59679 6.29565
lowerneck -15.095 -2.68571 -9.38159
upperneck 22.4664 -2.6933 4.86221
head 9.81781 -1.55371 2.92046
rclavicle -2.67365e-014 -7.15625e-015
rhumerus -33.9659 -13.3737 -78.0623
rradius 29.3705
rwrist 6.37447
rhand -13.4328 12.9769
rfingers 7.12502
rthumb 12.676 -16.6184
lclavicle -2.67365e-014 -7.15625e-015
lhumerus -22.0917 8.53717 85.8037
lradius 27.0207
lwrist -9.81234
lhand -18.2066 24.0534
lfingers 7.12502
lthumb 8.07092 53.8793
rfemur -29.0918 1.18876 15.6446
rtibia 13.7634
rfoot -6.43179 -8.56688
rtoes -10.381
lfemur 0.871119 1.80422 -32.199
ltibia 18.7042
lfoot -16.9277 -2.92457
ltoes 5.57124
